# xmcd CD database file
# Copyright (C) 1996 Ti Kan
#
# Track frame offsets:
# 	182
# 	16945
# 	29245
# 	42405
# 	57050
# 	68762
# 	81435
# 	97700
# 	110575
# 	123275
# 	135325
# 	149057
# 	161617
# 	174020
# 	185147
# 	197317
# 	210082
# 	223522
# 	237712
# 	249997
#
# Disc length: 3518 seconds
#
# Revision: 1
# Processed by: cddbd v1.4b41PL1 Copyright (c) Steve Scherf et al.
# Submitted via: DiscPlay 3.4.1
#
DISCID=140dbc14
DTITLE=The Nightriders - The World Of Truckers
DYEAR=1900
DGENRE=
TTITLE0=Convoy
TTITLE1=Mean Bear
TTITLE2=Rubber Duck
TTITLE3=Roses For Mama
TTITLE4=Truckin' Man Type Motel
TTITLE5=Crispy Critters
TTITLE6=Won't Be No Country Music
TTITLE7=Old Home Fill Her Up
TTITLE8=Silverton
TTITLE9=Classified
TTITLE10=Big Johnny
TTITLE11=Eighteen Wheeler
TTITLE12=Right There On The Hhighway
TTITLE13=Wagon Dragon
TTITLE14=Give Up The Road
TTITLE15=Country Kings
TTITLE16=Sunset Trail
TTITLE17=Woman From The Highway
TTITLE18=Raiders In The Storm
TTITLE19=My Old Truck
EXTD=
EXTT0=
EXTT1=
EXTT2=
EXTT3=
EXTT4=
EXTT5=
EXTT6=
EXTT7=
EXTT8=
EXTT9=
EXTT10=
EXTT11=
EXTT12=
EXTT13=
EXTT14=
EXTT15=
EXTT16=
EXTT17=
EXTT18=
EXTT19=
PLAYORDER=
